{"title":"Bhaag Milkha Bhaag 2013 Hindi Movies DVDScr Rip XviD New Source ","uid":8702621,"size":737725986,"categoryP":"video","categoryS":"movies","magnet":"?xt=urn:btih:76b00cb9aee406e2cd9f10cc6bd9268b34f9747a&amp;dn=Bhaag+Milkha+Bhaag+2013+Hindi+Movies+DVDScr+Rip+XviD+New+Source+&amp;tr=udp%3A%2F%2Ftracker.openbittorrent.com%3A80&amp;tr=udp%3A%2F%2Fopen.demonii.com%3A1337&amp;tr=udp%3A%2F%2Ftracker.coppersurfer.tk%3A6969&amp;tr=udp%3A%2F%2Fexodus.desync.com%3A6969","seeders":1,"leechers":1,"uploader":"basicssom","files":2,"time":1374085536,"description":"Bhaag Milkha Bhaag 2013 Hindi Movies DVDScr Rip XviD New Source Sample Included ~ â˜»rDXâ˜»\n\nScreen Shots :\n &lt;a href=&quot;\nhttp://myimghosting.serveftp.com/13/BhaagMilkhaBhaag.html&quot; rel=&quot;nofollow&quot; target=&quot;_NEW&quot;&gt;\nhttp://myimghosting.serveftp.com/13/BhaagMilkhaBhaag.html&lt;/a&gt;\n &lt;a href=&quot;\nhttp://myimghost.cwahi.net/BhaagMilkhaBhaag.html&quot; rel=&quot;nofollow&quot; target=&quot;_NEW&quot;&gt;\nhttp://myimghost.cwahi.net/BhaagMilkhaBhaag.html&lt;/a&gt;\n &lt;a href=&quot;\nhttp://users2.jabry.com/myimghost/BhaagMilkhaBhaag/BhaagMilkhaBhaag.jpg&quot; rel=&quot;nofollow&quot; target=&quot;_NEW&quot;&gt;\nhttp://users2.jabry.com/myimghost/BhaagMilkhaBhaag/BhaagMilkhaBhaag.jpg&lt;/a&gt;\n &lt;a href=&quot;\nhttp://users2.jabry.com/myimghost/BhaagMilkhaBhaag/BhaagMilkhaBhaag1.jpg&quot; rel=&quot;nofollow&quot; target=&quot;_NEW&quot;&gt;\nhttp://users2.jabry.com/myimghost/BhaagMilkhaBhaag/BhaagMilkhaBhaag1.jpg&lt;/a&gt;\n\nFormat                                   : Matroska\nFormat version                           : Version 1\nFile size                                : 693 MiB\nDuration                                 : 3h 5mn\nOverall bit rate                         : 521 Kbps\nEncoded date                             : UTC 2013-07-17 16:16:46\nWriting application                      : mkvmerge v2.5.3 ('Boogie') built on Mar  7 2009 \n\n15:00:41\nWriting library                          : libebml v0.7.7 + libmatroska v0.8.1\n\nVideo\nID                                       : 1\nFormat                                   : MPEG-4 Visual\nFormat profile                           : Advanced Simple@L5\nFormat settings, BVOP                    : Yes\nFormat settings, QPel                    : No\nFormat settings, GMC                     : No warppoints\nFormat settings, Matrix                  : Default (H.263)\nCodec ID                                 : V_MS/VFW/FOURCC / XVID\nCodec ID/Hint                            : XviD\nDuration                                 : 3h 5mn\nBit rate                                 : 431 Kbps\nWidth                                    : 640 pixels\nHeight                                   : 272 pixels\nDisplay aspect ratio                     : 2.35:1\nFrame rate mode                          : Constant\nFrame rate                               : 23.976 fps\nColor space                              : YUV\nChroma subsampling                       : 4:2:0\nBit depth                                : 8 bits\nScan type                                : Progressive\nCompression mode                         : Lossy\nBits/(Pixel*Frame)                       : 0.103\nStream size                              : 573 MiB (83%)\nWriting library                          : XviD 1.2.1 (UTC 2008-12-04)\nDefault                                  : Yes\nForced                                   : No\n\nAudio\nID                                       : 2\nFormat                                   : MPEG Audio\nFormat version                           : Version 1\nFormat profile                           : Layer 3\nMode                                     : Joint stereo\nMode extension                           : MS Stereo\nCodec ID                                 : A_MPEG/L3\nCodec ID/Hint                            : MP3\nDuration                                 : 3h 5mn\nBit rate mode                            : Constant\nBit rate                                 : 80.0 Kbps\nChannel(s)                               : 2 channels\nSampling rate                            : 32.0 KHz\nCompression mode                         : Lossy\nStream size                              : 106 MiB (15%)\nWriting library                          : LAME3.99r\nEncoding settings                        : -m j -V 4 -q 2 -lowpass 13.5 -b 80\nDefault                                  : Yes\nForced                                   : No","torrent":{"xt":"urn:btih:76b00cb9aee406e2cd9f10cc6bd9268b34f9747a","amp;dn":"Bhaag+Milkha+Bhaag+2013+Hindi+Movies+DVDScr+Rip+XviD+New+Source+","amp;tr":["udp%3A%2F%2Ftracker.openbittorrent.com%3A80","udp%3A%2F%2Fopen.demonii.com%3A1337","udp%3A%2F%2Ftracker.coppersurfer.tk%3A6969","udp%3A%2F%2Fexodus.desync.com%3A6969"],"infoHash":"76b00cb9aee406e2cd9f10cc6bd9268b34f9747a","infoHashBuffer":{"type":"Buffer","data":[118,176,12,185,174,228,6,226,205,159,16,204,107,217,38,139,52,249,116,122]},"announce":[],"urlList":[]}}